<?xml version="1.0" standalone="no"?>
<!DOCTYPE svg PUBLIC "-//W3C//DTD SVG 1.1//EN" "http://www.w3.org/Graphics/SVG/1.1/DTD/svg11.dtd">
<svg version="1.1" width="1200" height="518" onload="init(evt)" viewBox="0 0 1200 518" xmlns="http://www.w3.org/2000/svg" xmlns:xlink="http://www.w3.org/1999/xlink">
<style type="text/css">
	text { font-family:Verdana; font-size:12px; fill:rgb(0,0,0); }
	#search { opacity:0.1; cursor:pointer; }
	#search:hover, #search.show { opacity:1; }
	#subtitle { text-anchor:middle; font-color:rgb(160,160,160); }
	#title { text-anchor:middle; font-size:17px}
	#unzoom { cursor:pointer; }
	#frames > *:hover { stroke:black; stroke-width:0.5; cursor:pointer; }
	.hide { display:none; }
	.parent { opacity:0.5; }
</style>
<script type="text/ecmascript">
<![CDATA[
	"use strict";
	var details, searchbtn, unzoombtn, matchedtxt, svg, searching;
	function init(evt) {
		details = document.getElementById("details").firstChild;
		searchbtn = document.getElementById("search");
		unzoombtn = document.getElementById("unzoom");
		matchedtxt = document.getElementById("matched");
		svg = document.getElementsByTagName("svg")[0];
		searching = 0;
	}

	window.addEventListener("click", function(e) {
		var target = find_group(e.target);
		if (target) {
			if (target.nodeName == "a") {
				if (e.ctrlKey === false) return;
				e.preventDefault();
			}
			if (target.classList.contains("parent")) unzoom();
			zoom(target);
		}
		else if (e.target.id == "unzoom") unzoom();
		else if (e.target.id == "search") search_prompt();
	}, false)

	// mouse-over for info
	// show
	window.addEventListener("mouseover", function(e) {
		var target = find_group(e.target);
		if (target) details.nodeValue = "Function: " + g_to_text(target);
	}, false)

	// clear
	window.addEventListener("mouseout", function(e) {
		var target = find_group(e.target);
		if (target) details.nodeValue = ' ';
	}, false)

	// ctrl-F for search
	window.addEventListener("keydown",function (e) {
		if (e.keyCode === 114 || (e.ctrlKey && e.keyCode === 70)) {
			e.preventDefault();
			search_prompt();
		}
	}, false)

	// functions
	function find_child(node, selector) {
		var children = node.querySelectorAll(selector);
		if (children.length) return children[0];
		return;
	}
	function find_group(node) {
		var parent = node.parentElement;
		if (!parent) return;
		if (parent.id == "frames") return node;
		return find_group(parent);
	}
	function orig_save(e, attr, val) {
		if (e.attributes["_orig_" + attr] != undefined) return;
		if (e.attributes[attr] == undefined) return;
		if (val == undefined) val = e.attributes[attr].value;
		e.setAttribute("_orig_" + attr, val);
	}
	function orig_load(e, attr) {
		if (e.attributes["_orig_"+attr] == undefined) return;
		e.attributes[attr].value = e.attributes["_orig_" + attr].value;
		e.removeAttribute("_orig_"+attr);
	}
	function g_to_text(e) {
		var text = find_child(e, "title").firstChild.nodeValue;
		return (text)
	}
	function g_to_func(e) {
		var func = g_to_text(e);
		// if there's any manipulation we want to do to the function
		// name before it's searched, do it here before returning.
		return (func);
	}
	function update_text(e) {
		var r = find_child(e, "rect");
		var t = find_child(e, "text");
		var w = parseFloat(r.attributes.width.value) -3;
		var txt = find_child(e, "title").textContent.replace(/\([^(]*\)$/,"");
		t.attributes.x.value = parseFloat(r.attributes.x.value) + 3;

		// Smaller than this size won't fit anything
		if (w < 2 * 12 * 0.59) {
			t.textContent = "";
			return;
		}

		t.textContent = txt;
		// Fit in full text width
		if (/^ *$/.test(txt) || t.getSubStringLength(0, txt.length) < w)
			return;

		for (var x = txt.length - 2; x > 0; x--) {
			if (t.getSubStringLength(0, x + 2) <= w) {
				t.textContent = txt.substring(0, x) + "..";
				return;
			}
		}
		t.textContent = "";
	}

	// zoom
	function zoom_reset(e) {
		if (e.attributes != undefined) {
			orig_load(e, "x");
			orig_load(e, "width");
		}
		if (e.childNodes == undefined) return;
		for (var i = 0, c = e.childNodes; i < c.length; i++) {
			zoom_reset(c[i]);
		}
	}
	function zoom_child(e, x, ratio) {
		if (e.attributes != undefined) {
			if (e.attributes.x != undefined) {
				orig_save(e, "x");
				e.attributes.x.value = (parseFloat(e.attributes.x.value) - x - 10) * ratio + 10;
				if (e.tagName == "text")
					e.attributes.x.value = find_child(e.parentNode, "rect[x]").attributes.x.value + 3;
			}
			if (e.attributes.width != undefined) {
				orig_save(e, "width");
				e.attributes.width.value = parseFloat(e.attributes.width.value) * ratio;
			}
		}

		if (e.childNodes == undefined) return;
		for (var i = 0, c = e.childNodes; i < c.length; i++) {
			zoom_child(c[i], x - 10, ratio);
		}
	}
	function zoom_parent(e) {
		if (e.attributes) {
			if (e.attributes.x != undefined) {
				orig_save(e, "x");
				e.attributes.x.value = 10;
			}
			if (e.attributes.width != undefined) {
				orig_save(e, "width");
				e.attributes.width.value = parseInt(svg.width.baseVal.value) - (10 * 2);
			}
		}
		if (e.childNodes == undefined) return;
		for (var i = 0, c = e.childNodes; i < c.length; i++) {
			zoom_parent(c[i]);
		}
	}
	function zoom(node) {
		var attr = find_child(node, "rect").attributes;
		var width = parseFloat(attr.width.value);
		var xmin = parseFloat(attr.x.value);
		var xmax = parseFloat(xmin + width);
		var ymin = parseFloat(attr.y.value);
		var ratio = (svg.width.baseVal.value - 2 * 10) / width;

		// XXX: Workaround for JavaScript float issues (fix me)
		var fudge = 0.0001;

		unzoombtn.classList.remove("hide");

		var el = document.getElementById("frames").children;
		for (var i = 0; i < el.length; i++) {
			var e = el[i];
			var a = find_child(e, "rect").attributes;
			var ex = parseFloat(a.x.value);
			var ew = parseFloat(a.width.value);
			var upstack;
			// Is it an ancestor
			if (0 == 0) {
				upstack = parseFloat(a.y.value) > ymin;
			} else {
				upstack = parseFloat(a.y.value) < ymin;
			}
			if (upstack) {
				// Direct ancestor
				if (ex <= xmin && (ex+ew+fudge) >= xmax) {
					e.classList.add("parent");
					zoom_parent(e);
					update_text(e);
				}
				// not in current path
				else
					e.classList.add("hide");
			}
			// Children maybe
			else {
				// no common path
				if (ex < xmin || ex + fudge >= xmax) {
					e.classList.add("hide");
				}
				else {
					zoom_child(e, xmin, ratio);
					update_text(e);
				}
			}
		}
	}
	function unzoom() {
		unzoombtn.classList.add("hide");
		var el = document.getElementById("frames").children;
		for(var i = 0; i < el.length; i++) {
			el[i].classList.remove("parent");
			el[i].classList.remove("hide");
			zoom_reset(el[i]);
			update_text(el[i]);
		}
	}

	// search
	function reset_search() {
		var el = document.querySelectorAll("#frames rect");
		for (var i = 0; i < el.length; i++) {
			orig_load(el[i], "fill")
		}
	}
	function search_prompt() {
		if (!searching) {
			var term = prompt("Enter a search term (regexp " +
			    "allowed, eg: ^ext4_)", "");
			if (term != null) {
				search(term)
			}
		} else {
			reset_search();
			searching = 0;
			searchbtn.classList.remove("show");
			searchbtn.firstChild.nodeValue = "Search"
			matchedtxt.classList.add("hide");
			matchedtxt.firstChild.nodeValue = ""
		}
	}
	function search(term) {
		var re = new RegExp(term);
		var el = document.getElementById("frames").children;
		var matches = new Object();
		var maxwidth = 0;
		for (var i = 0; i < el.length; i++) {
			var e = el[i];
			var func = g_to_func(e);
			var rect = find_child(e, "rect");
			if (func == null || rect == null)
				continue;

			// Save max width. Only works as we have a root frame
			var w = parseFloat(rect.attributes.width.value);
			if (w > maxwidth)
				maxwidth = w;

			if (func.match(re)) {
				// highlight
				var x = parseFloat(rect.attributes.x.value);
				orig_save(rect, "fill");
				rect.attributes.fill.value = "rgb(230,0,230)";

				// remember matches
				if (matches[x] == undefined) {
					matches[x] = w;
				} else {
					if (w > matches[x]) {
						// overwrite with parent
						matches[x] = w;
					}
				}
				searching = 1;
			}
		}
		if (!searching)
			return;

		searchbtn.classList.add("show");
		searchbtn.firstChild.nodeValue = "Reset Search";

		// calculate percent matched, excluding vertical overlap
		var count = 0;
		var lastx = -1;
		var lastw = 0;
		var keys = Array();
		for (k in matches) {
			if (matches.hasOwnProperty(k))
				keys.push(k);
		}
		// sort the matched frames by their x location
		// ascending, then width descending
		keys.sort(function(a, b){
			return a - b;
		});
		// Step through frames saving only the biggest bottom-up frames
		// thanks to the sort order. This relies on the tree property
		// where children are always smaller than their parents.
		var fudge = 0.0001;	// JavaScript floating point
		for (var k in keys) {
			var x = parseFloat(keys[k]);
			var w = matches[keys[k]];
			if (x >= lastx + lastw - fudge) {
				count += w;
				lastx = x;
				lastw = w;
			}
		}
		// display matched percent
		matchedtxt.classList.remove("hide");
		var pct = 100 * count / maxwidth;
		if (pct != 100) pct = pct.toFixed(1)
		matchedtxt.firstChild.nodeValue = "Matched: " + pct + "%";
	}
]]>
</script>
<rect x="0" y="0" width="100%" height="100%" fill="rgb(240,240,220)"/>
<text id="title" x="600" y="24">Flame Graph</text>
<text id="details" x="10" y="501"> </text>
<text id="unzoom" x="10" y="24" class="hide">Reset Zoom</text>
<text id="search" x="1090" y="24">Search</text>
<text id="matched" x="1090" y="501"> </text>
<g id="frames">
<g>
<title>all (63 samples, 100.00%)</title><rect x="10.0" y="467.0" width="1180.0" height="15" fill="#fa7b7b" rx="2" ry="2"/>
<text x="13.0" y="478.0">all</text>
</g>
<g>
<title>[Attach Listener tid=27] (2 samples, 3.17%)</title><rect x="10.0" y="451.0" width="37.5" height="15" fill="#ec6969" rx="2" ry="2"/>
<text x="13.0" y="462.0">[At..</text>
</g>
<g>
<title>java/lang/NoClassDefFoundError.&lt;init&gt; (1 samples, 1.59%)</title><rect x="10.0" y="435.0" width="18.7" height="15" fill="#67f867" rx="2" ry="2"/>
<text x="13.0" y="446.0"></text>
</g>
<g>
<title>java/lang/LinkageError.&lt;init&gt; (1 samples, 1.59%)</title><rect x="10.0" y="419.0" width="18.7" height="15" fill="#67f867" rx="2" ry="2"/>
<text x="13.0" y="430.0"></text>
</g>
<g>
<title>java/lang/Error.&lt;init&gt; (1 samples, 1.59%)</title><rect x="10.0" y="403.0" width="18.7" height="15" fill="#6bfc6b" rx="2" ry="2"/>
<text x="13.0" y="414.0"></text>
</g>
<g>
<title>java/lang/Throwable.&lt;init&gt; (1 samples, 1.59%)</title><rect x="10.0" y="387.0" width="18.7" height="15" fill="#55e655" rx="2" ry="2"/>
<text x="13.0" y="398.0"></text>
</g>
<g>
<title>java/lang/Throwable.fillInStackTrace (1 samples, 1.59%)</title><rect x="10.0" y="371.0" width="18.7" height="15" fill="#5aeb5a" rx="2" ry="2"/>
<text x="13.0" y="382.0"></text>
</g>
<g>
<title>java/lang/Throwable.fillInStackTrace (1 samples, 1.59%)</title><rect x="10.0" y="355.0" width="18.7" height="15" fill="#67f867" rx="2" ry="2"/>
<text x="13.0" y="366.0"></text>
</g>
<g>
<title>Java_java_lang_Throwable_fillInStackTrace (1 samples, 1.59%)</title><rect x="10.0" y="339.0" width="18.7" height="15" fill="#e96565" rx="2" ry="2"/>
<text x="13.0" y="350.0"></text>
</g>
<g>
<title>JVM_FillInStackTrace (1 samples, 1.59%)</title><rect x="10.0" y="323.0" width="18.7" height="15" fill="#f17070" rx="2" ry="2"/>
<text x="13.0" y="334.0"></text>
</g>
<g>
<title>java_lang_Throwable::fill_in_stack_trace(Handle, methodHandle const&amp;) (1 samples, 1.59%)</title><rect x="10.0" y="307.0" width="18.7" height="15" fill="#d6d640" rx="2" ry="2"/>
<text x="13.0" y="318.0"></text>
</g>
<g>
<title>java_lang_Throwable::fill_in_stack_trace(Handle, methodHandle const&amp;, Thread*) (1 samples, 1.59%)</title><rect x="10.0" y="291.0" width="18.7" height="15" fill="#dada42" rx="2" ry="2"/>
<text x="13.0" y="302.0"></text>
</g>
<g>
<title>BacktraceBuilder::BacktraceBuilder(Thread*) (1 samples, 1.59%)</title><rect x="10.0" y="275.0" width="18.7" height="15" fill="#d2d23f" rx="2" ry="2"/>
<text x="13.0" y="286.0"></text>
</g>
<g>
<title>ObjArrayKlass::allocate(int, Thread*) (1 samples, 1.59%)</title><rect x="10.0" y="259.0" width="18.7" height="15" fill="#d7d741" rx="2" ry="2"/>
<text x="13.0" y="270.0"></text>
</g>
<g>
<title>MemAllocator::allocate() const (1 samples, 1.59%)</title><rect x="10.0" y="243.0" width="18.7" height="15" fill="#e4e445" rx="2" ry="2"/>
<text x="13.0" y="254.0"></text>
</g>
<g>
<title>EpsilonHeap::allocate_new_tlab(unsigned long, unsigned long, unsigned long*) (1 samples, 1.59%)</title><rect x="10.0" y="227.0" width="18.7" height="15" fill="#e3e345" rx="2" ry="2"/>
<text x="13.0" y="238.0"></text>
</g>
<g>
<title>start_thread (1 samples, 1.59%)</title><rect x="28.7" y="435.0" width="18.8" height="15" fill="#f47373" rx="2" ry="2"/>
<text x="31.7" y="446.0"></text>
</g>
<g>
<title>thread_native_entry(Thread*) (1 samples, 1.59%)</title><rect x="28.7" y="419.0" width="18.8" height="15" fill="#f67676" rx="2" ry="2"/>
<text x="31.7" y="430.0"></text>
</g>
<g>
<title>Thread::call_run() (1 samples, 1.59%)</title><rect x="28.7" y="403.0" width="18.8" height="15" fill="#cccc3d" rx="2" ry="2"/>
<text x="31.7" y="414.0"></text>
</g>
<g>
<title>JavaThread::thread_main_inner() (1 samples, 1.59%)</title><rect x="28.7" y="387.0" width="18.8" height="15" fill="#dada42" rx="2" ry="2"/>
<text x="31.7" y="398.0"></text>
</g>
<g>
<title>attach_listener_thread_entry(JavaThread*, Thread*) (1 samples, 1.59%)</title><rect x="28.7" y="371.0" width="18.8" height="15" fill="#e15a5a" rx="2" ry="2"/>
<text x="31.7" y="382.0"></text>
</g>
<g>
<title>JvmtiExport::load_agent_library(char const*, char const*, char const*, outputStream*) (1 samples, 1.59%)</title><rect x="28.7" y="355.0" width="18.8" height="15" fill="#cfcf3e" rx="2" ry="2"/>
<text x="31.7" y="366.0"></text>
</g>
<g>
<title>Agent_OnAttach (1 samples, 1.59%)</title><rect x="28.7" y="339.0" width="18.8" height="15" fill="#e55f5f" rx="2" ry="2"/>
<text x="31.7" y="350.0"></text>
</g>
<g>
<title>Profiler::run(Arguments&amp;) (1 samples, 1.59%)</title><rect x="28.7" y="323.0" width="18.8" height="15" fill="#e0e044" rx="2" ry="2"/>
<text x="31.7" y="334.0"></text>
</g>
<g>
<title>Profiler::runInternal(Arguments&amp;, std::ostream&amp;) (1 samples, 1.59%)</title><rect x="28.7" y="307.0" width="18.8" height="15" fill="#cccc3d" rx="2" ry="2"/>
<text x="31.7" y="318.0"></text>
</g>
<g>
<title>Profiler::start(Arguments&amp;, bool) (1 samples, 1.59%)</title><rect x="28.7" y="291.0" width="18.8" height="15" fill="#d4d440" rx="2" ry="2"/>
<text x="31.7" y="302.0"></text>
</g>
<g>
<title>Profiler::switchNativeMethodTraps(bool) (1 samples, 1.59%)</title><rect x="28.7" y="275.0" width="18.8" height="15" fill="#cbcb3d" rx="2" ry="2"/>
<text x="31.7" y="286.0"></text>
</g>
<g>
<title>Profiler::bindNativeLibraryLoad(JNIEnv_*, unsigned char (*)(JNIEnv_*, _jobject*, _jstring*, unsigned char)) (1 samples, 1.59%)</title><rect x="28.7" y="259.0" width="18.8" height="15" fill="#cbcb3d" rx="2" ry="2"/>
<text x="31.7" y="270.0"></text>
</g>
<g>
<title>jni_FindClass (1 samples, 1.59%)</title><rect x="28.7" y="243.0" width="18.8" height="15" fill="#fe8181" rx="2" ry="2"/>
<text x="31.7" y="254.0"></text>
</g>
<g>
<title>find_class_from_class_loader(JNIEnv_*, Symbol*, unsigned char, Handle, Handle, unsigned char, Thread*) (1 samples, 1.59%)</title><rect x="28.7" y="227.0" width="18.8" height="15" fill="#e76262" rx="2" ry="2"/>
<text x="31.7" y="238.0"></text>
</g>
<g>
<title>SystemDictionary::resolve_or_fail(Symbol*, Handle, Handle, bool, Thread*) (1 samples, 1.59%)</title><rect x="28.7" y="211.0" width="18.8" height="15" fill="#d7d741" rx="2" ry="2"/>
<text x="31.7" y="222.0"></text>
</g>
<g>
<title>SystemDictionary::resolve_instance_class_or_null(Symbol*, Handle, Handle, Thread*) (1 samples, 1.59%)</title><rect x="28.7" y="195.0" width="18.8" height="15" fill="#e1e144" rx="2" ry="2"/>
<text x="31.7" y="206.0"></text>
</g>
<g>
<title>SystemDictionary::load_instance_class(Symbol*, Handle, Thread*) (1 samples, 1.59%)</title><rect x="28.7" y="179.0" width="18.8" height="15" fill="#dada42" rx="2" ry="2"/>
<text x="31.7" y="190.0"></text>
</g>
<g>
<title>java_lang_String::create_from_symbol(Symbol*, Thread*) (1 samples, 1.59%)</title><rect x="28.7" y="163.0" width="18.8" height="15" fill="#d0d03e" rx="2" ry="2"/>
<text x="31.7" y="174.0"></text>
</g>
<g>
<title>InstanceKlass::allocate_instance(Thread*) (1 samples, 1.59%)</title><rect x="28.7" y="147.0" width="18.8" height="15" fill="#dbdb42" rx="2" ry="2"/>
<text x="31.7" y="158.0"></text>
</g>
<g>
<title>MemAllocator::allocate() const (1 samples, 1.59%)</title><rect x="28.7" y="131.0" width="18.8" height="15" fill="#d7d741" rx="2" ry="2"/>
<text x="31.7" y="142.0"></text>
</g>
<g>
<title>EpsilonHeap::allocate_new_tlab(unsigned long, unsigned long, unsigned long*) (1 samples, 1.59%)</title><rect x="28.7" y="115.0" width="18.8" height="15" fill="#d6d640" rx="2" ry="2"/>
<text x="31.7" y="126.0"></text>
</g>
<g>
<title>[C1 CompilerThre tid=13] (1 samples, 1.59%)</title><rect x="47.5" y="451.0" width="18.7" height="15" fill="#fe8080" rx="2" ry="2"/>
<text x="50.5" y="462.0"></text>
</g>
<g>
<title>start_thread (1 samples, 1.59%)</title><rect x="47.5" y="435.0" width="18.7" height="15" fill="#e96565" rx="2" ry="2"/>
<text x="50.5" y="446.0"></text>
</g>
<g>
<title>thread_native_entry(Thread*) (1 samples, 1.59%)</title><rect x="47.5" y="419.0" width="18.7" height="15" fill="#f87878" rx="2" ry="2"/>
<text x="50.5" y="430.0"></text>
</g>
<g>
<title>Thread::call_run() (1 samples, 1.59%)</title><rect x="47.5" y="403.0" width="18.7" height="15" fill="#d7d741" rx="2" ry="2"/>
<text x="50.5" y="414.0"></text>
</g>
<g>
<title>JavaThread::thread_main_inner() (1 samples, 1.59%)</title><rect x="47.5" y="387.0" width="18.7" height="15" fill="#dfdf43" rx="2" ry="2"/>
<text x="50.5" y="398.0"></text>
</g>
<g>
<title>CompileBroker::compiler_thread_loop() (1 samples, 1.59%)</title><rect x="47.5" y="371.0" width="18.7" height="15" fill="#d4d440" rx="2" ry="2"/>
<text x="50.5" y="382.0"></text>
</g>
<g>
<title>CompileBroker::invoke_compiler_on_method(CompileTask*) (1 samples, 1.59%)</title><rect x="47.5" y="355.0" width="18.7" height="15" fill="#e2e244" rx="2" ry="2"/>
<text x="50.5" y="366.0"></text>
</g>
<g>
<title>Compiler::compile_method(ciEnv*, ciMethod*, int, DirectiveSet*) (1 samples, 1.59%)</title><rect x="47.5" y="339.0" width="18.7" height="15" fill="#d0d03e" rx="2" ry="2"/>
<text x="50.5" y="350.0"></text>
</g>
<g>
<title>Compilation::Compilation(AbstractCompiler*, ciEnv*, ciMethod*, int, BufferBlob*, DirectiveSet*) (1 samples, 1.59%)</title><rect x="47.5" y="323.0" width="18.7" height="15" fill="#d2d23f" rx="2" ry="2"/>
<text x="50.5" y="334.0"></text>
</g>
<g>
<title>Compilation::compile_method() (1 samples, 1.59%)</title><rect x="47.5" y="307.0" width="18.7" height="15" fill="#e0e044" rx="2" ry="2"/>
<text x="50.5" y="318.0"></text>
</g>
<g>
<title>Compilation::compile_java_method() (1 samples, 1.59%)</title><rect x="47.5" y="291.0" width="18.7" height="15" fill="#e3e345" rx="2" ry="2"/>
<text x="50.5" y="302.0"></text>
</g>
<g>
<title>Compilation::build_hir() [clone .part.0] (1 samples, 1.59%)</title><rect x="47.5" y="275.0" width="18.7" height="15" fill="#caca3c" rx="2" ry="2"/>
<text x="50.5" y="286.0"></text>
</g>
<g>
<title>IR::IR(Compilation*, ciMethod*, int) (1 samples, 1.59%)</title><rect x="47.5" y="259.0" width="18.7" height="15" fill="#e4e445" rx="2" ry="2"/>
<text x="50.5" y="270.0"></text>
</g>
<g>
<title>IRScope::IRScope(Compilation*, IRScope*, int, ciMethod*, int, bool) (1 samples, 1.59%)</title><rect x="47.5" y="243.0" width="18.7" height="15" fill="#d7d741" rx="2" ry="2"/>
<text x="50.5" y="254.0"></text>
</g>
<g>
<title>GraphBuilder::GraphBuilder(Compilation*, IRScope*) (1 samples, 1.59%)</title><rect x="47.5" y="227.0" width="18.7" height="15" fill="#caca3c" rx="2" ry="2"/>
<text x="50.5" y="238.0"></text>
</g>
<g>
<title>GraphBuilder::iterate_all_blocks(bool) (1 samples, 1.59%)</title><rect x="47.5" y="211.0" width="18.7" height="15" fill="#cdcd3d" rx="2" ry="2"/>
<text x="50.5" y="222.0"></text>
</g>
<g>
<title>GraphBuilder::iterate_bytecodes_for_block(int) (1 samples, 1.59%)</title><rect x="47.5" y="195.0" width="18.7" height="15" fill="#dbdb42" rx="2" ry="2"/>
<text x="50.5" y="206.0"></text>
</g>
<g>
<title>GraphBuilder::load_constant() (1 samples, 1.59%)</title><rect x="47.5" y="179.0" width="18.7" height="15" fill="#e2e244" rx="2" ry="2"/>
<text x="50.5" y="190.0"></text>
</g>
<g>
<title>ciBytecodeStream::get_constant() (1 samples, 1.59%)</title><rect x="47.5" y="163.0" width="18.7" height="15" fill="#d2d23f" rx="2" ry="2"/>
<text x="50.5" y="174.0"></text>
</g>
<g>
<title>ciEnv::get_constant_by_index_impl(constantPoolHandle const&amp;, int, int, ciInstanceKlass*) (1 samples, 1.59%)</title><rect x="47.5" y="147.0" width="18.7" height="15" fill="#c9c93c" rx="2" ry="2"/>
<text x="50.5" y="158.0"></text>
</g>
<g>
<title>ConstantPool::string_at_impl(constantPoolHandle const&amp;, int, int, Thread*) (1 samples, 1.59%)</title><rect x="47.5" y="131.0" width="18.7" height="15" fill="#c8c83c" rx="2" ry="2"/>
<text x="50.5" y="142.0"></text>
</g>
<g>
<title>StringTable::intern(Symbol*, Thread*) (1 samples, 1.59%)</title><rect x="47.5" y="115.0" width="18.7" height="15" fill="#d5d540" rx="2" ry="2"/>
<text x="50.5" y="126.0"></text>
</g>
<g>
<title>StringTable::do_intern(Handle, unsigned short const*, int, unsigned long, Thread*) (1 samples, 1.59%)</title><rect x="47.5" y="99.0" width="18.7" height="15" fill="#c9c93c" rx="2" ry="2"/>
<text x="50.5" y="110.0"></text>
</g>
<g>
<title>java_lang_String::create_from_unicode(unsigned short const*, int, Thread*) (1 samples, 1.59%)</title><rect x="47.5" y="83.0" width="18.7" height="15" fill="#cfcf3e" rx="2" ry="2"/>
<text x="50.5" y="94.0"></text>
</g>
<g>
<title>TypeArrayKlass::allocate_common(int, bool, Thread*) (1 samples, 1.59%)</title><rect x="47.5" y="67.0" width="18.7" height="15" fill="#e5e545" rx="2" ry="2"/>
<text x="50.5" y="78.0"></text>
</g>
<g>
<title>MemAllocator::allocate() const (1 samples, 1.59%)</title><rect x="47.5" y="51.0" width="18.7" height="15" fill="#e3e345" rx="2" ry="2"/>
<text x="50.5" y="62.0"></text>
</g>
<g>
<title>EpsilonHeap::allocate_new_tlab(unsigned long, unsigned long, unsigned long*) (1 samples, 1.59%)</title><rect x="47.5" y="35.0" width="18.7" height="15" fill="#e1e144" rx="2" ry="2"/>
<text x="50.5" y="46.0"></text>
</g>
<g>
<title>[DestroyJavaVM tid=6] (60 samples, 95.24%)</title><rect x="66.2" y="451.0" width="1123.8" height="15" fill="#e86464" rx="2" ry="2"/>
<text x="69.2" y="462.0">[DestroyJavaVM tid=6]</text>
</g>
<g>
<title>com/sun/tools/javac/launcher/Main.main (60 samples, 95.24%)</title><rect x="66.2" y="435.0" width="1123.8" height="15" fill="#60f160" rx="2" ry="2"/>
<text x="69.2" y="446.0">com/sun/tools/javac/launcher/Main.main</text>
</g>
<g>
<title>com/sun/tools/javac/launcher/Main.run (60 samples, 95.24%)</title><rect x="66.2" y="419.0" width="1123.8" height="15" fill="#5bec5b" rx="2" ry="2"/>
<text x="69.2" y="430.0">com/sun/tools/javac/launcher/Main.run</text>
</g>
<g>
<title>com/sun/tools/javac/launcher/Main.execute (60 samples, 95.24%)</title><rect x="66.2" y="403.0" width="1123.8" height="15" fill="#66f766" rx="2" ry="2"/>
<text x="69.2" y="414.0">com/sun/tools/javac/launcher/Main.execute</text>
</g>
<g>
<title>java/lang/reflect/Method.invoke (60 samples, 95.24%)</title><rect x="66.2" y="387.0" width="1123.8" height="15" fill="#5ff05f" rx="2" ry="2"/>
<text x="69.2" y="398.0">java/lang/reflect/Method.invoke</text>
</g>
<g>
<title>jdk/internal/reflect/DelegatingMethodAccessorImpl.invoke (60 samples, 95.24%)</title><rect x="66.2" y="371.0" width="1123.8" height="15" fill="#64f564" rx="2" ry="2"/>
<text x="69.2" y="382.0">jdk/internal/reflect/DelegatingMethodAccessorImpl.invoke</text>
</g>
<g>
<title>jdk/internal/reflect/NativeMethodAccessorImpl.invoke (60 samples, 95.24%)</title><rect x="66.2" y="355.0" width="1123.8" height="15" fill="#5ff05f" rx="2" ry="2"/>
<text x="69.2" y="366.0">jdk/internal/reflect/NativeMethodAccessorImpl.invoke</text>
</g>
<g>
<title>jdk/internal/reflect/NativeMethodAccessorImpl.invoke0 (60 samples, 95.24%)</title><rect x="66.2" y="339.0" width="1123.8" height="15" fill="#51e251" rx="2" ry="2"/>
<text x="69.2" y="350.0">jdk/internal/reflect/NativeMethodAccessorImpl.invoke0</text>
</g>
<g>
<title>pbouda/asyncprofiler/openjdk/AllocationTracker.main (60 samples, 95.24%)</title><rect x="66.2" y="323.0" width="1123.8" height="15" fill="#5dee5d" rx="2" ry="2"/>
<text x="69.2" y="334.0">pbouda/asyncprofiler/openjdk/AllocationTracker.main</text>
</g>
<g>
<title>java/lang/String.repeat (60 samples, 95.24%)</title><rect x="66.2" y="307.0" width="1123.8" height="15" fill="#6bfc6b" rx="2" ry="2"/>
<text x="69.2" y="318.0">java/lang/String.repeat</text>
</g>
<g>
<title>InterpreterRuntime::_new(JavaThread*, ConstantPool*, int) (3 samples, 4.76%)</title><rect x="66.2" y="291.0" width="56.2" height="15" fill="#e3e345" rx="2" ry="2"/>
<text x="69.2" y="302.0">Interp..</text>
</g>
<g>
<title>InstanceKlass::allocate_instance(Thread*) (3 samples, 4.76%)</title><rect x="66.2" y="275.0" width="56.2" height="15" fill="#dddd43" rx="2" ry="2"/>
<text x="69.2" y="286.0">Instan..</text>
</g>
<g>
<title>MemAllocator::allocate() const (3 samples, 4.76%)</title><rect x="66.2" y="259.0" width="56.2" height="15" fill="#d0d03e" rx="2" ry="2"/>
<text x="69.2" y="270.0">MemAll..</text>
</g>
<g>
<title>EpsilonHeap::allocate_new_tlab(unsigned long, unsigned long, unsigned long*) (3 samples, 4.76%)</title><rect x="66.2" y="243.0" width="56.2" height="15" fill="#dede43" rx="2" ry="2"/>
<text x="69.2" y="254.0">Epsilo..</text>
</g>
<g>
<title>InterpreterRuntime::newarray(JavaThread*, BasicType, int) (35 samples, 55.56%)</title><rect x="122.4" y="291.0" width="655.5" height="15" fill="#dbdb42" rx="2" ry="2"/>
<text x="125.4" y="302.0">InterpreterRuntime::newarray(JavaThread*, BasicType, int)</text>
</g>
<g>
<title>TypeArrayKlass::allocate_common(int, bool, Thread*) (35 samples, 55.56%)</title><rect x="122.4" y="275.0" width="655.5" height="15" fill="#d2d23f" rx="2" ry="2"/>
<text x="125.4" y="286.0">TypeArrayKlass::allocate_common(int, bool, Thread*)</text>
</g>
<g>
<title>MemAllocator::allocate() const (35 samples, 55.56%)</title><rect x="122.4" y="259.0" width="655.5" height="15" fill="#dcdc42" rx="2" ry="2"/>
<text x="125.4" y="270.0">MemAllocator::allocate() const</text>
</g>
<g>
<title>EpsilonHeap::allocate_new_tlab(unsigned long, unsigned long, unsigned long*) (35 samples, 55.56%)</title><rect x="122.4" y="243.0" width="655.5" height="15" fill="#cccc3d" rx="2" ry="2"/>
<text x="125.4" y="254.0">EpsilonHeap::allocate_new_tlab(unsigned long, unsigned long, unsigned long*)</text>
</g>
<g>
<title>Runtime1::new_instance(JavaThread*, Klass*) (10 samples, 15.87%)</title><rect x="777.9" y="291.0" width="187.3" height="15" fill="#d5d540" rx="2" ry="2"/>
<text x="780.9" y="302.0">Runtime1::new_instance(J..</text>
</g>
<g>
<title>InstanceKlass::allocate_instance(Thread*) (10 samples, 15.87%)</title><rect x="777.9" y="275.0" width="187.3" height="15" fill="#e2e244" rx="2" ry="2"/>
<text x="780.9" y="286.0">InstanceKlass::allocate_..</text>
</g>
<g>
<title>MemAllocator::allocate() const (10 samples, 15.87%)</title><rect x="777.9" y="259.0" width="187.3" height="15" fill="#e0e044" rx="2" ry="2"/>
<text x="780.9" y="270.0">MemAllocator::allocate()..</text>
</g>
<g>
<title>EpsilonHeap::allocate_new_tlab(unsigned long, unsigned long, unsigned long*) (10 samples, 15.87%)</title><rect x="777.9" y="243.0" width="187.3" height="15" fill="#d1d13f" rx="2" ry="2"/>
<text x="780.9" y="254.0">EpsilonHeap::allocate_ne..</text>
</g>
<g>
<title>Runtime1::new_type_array(JavaThread*, Klass*, int) (12 samples, 19.05%)</title><rect x="965.2" y="291.0" width="224.8" height="15" fill="#cece3e" rx="2" ry="2"/>
<text x="968.2" y="302.0">Runtime1::new_type_array(JavaT..</text>
</g>
<g>
<title>TypeArrayKlass::allocate_common(int, bool, Thread*) (12 samples, 19.05%)</title><rect x="965.2" y="275.0" width="224.8" height="15" fill="#e2e244" rx="2" ry="2"/>
<text x="968.2" y="286.0">TypeArrayKlass::allocate_commo..</text>
</g>
<g>
<title>MemAllocator::allocate() const (12 samples, 19.05%)</title><rect x="965.2" y="259.0" width="224.8" height="15" fill="#d2d23f" rx="2" ry="2"/>
<text x="968.2" y="270.0">MemAllocator::allocate() const</text>
</g>
<g>
<title>EpsilonHeap::allocate_new_tlab(unsigned long, unsigned long, unsigned long*) (12 samples, 19.05%)</title><rect x="965.2" y="243.0" width="224.8" height="15" fill="#dcdc42" rx="2" ry="2"/>
<text x="968.2" y="254.0">EpsilonHeap::allocate_new_tlab..</text>
</g>
</g>
</svg>
